<?xml version="1.0" encoding="UTF-8" standalone="no"?>
<svg
   width="1760"
   height="470"
   viewBox="40 28 1760 470"
   fill="none"
   version="1.1"
   id="svg3"
   xmlns="http://www.w3.org/2000/svg"
   xmlns:svg="http://www.w3.org/2000/svg">
  <defs
     id="defs3" />
  <g
     id="vector-head"
     fill="#A89B8F"
     fill-rule="evenodd"
     clip-rule="evenodd">
    <path
       d="M 383.383 109.583 L 369.617 95.817 L 355.851 87.057 L 342.086 80.800 L 329.571 77.046 L 324.566 77.046 L 323.314 75.794 L 302.040 74.543 L 300.789 75.794 L 294.531 75.794 L 293.280 77.046 L 283.269 78.297 L 275.760 82.051 L 273.257 82.051 L 270.754 84.554 L 278.263 85.806 L 283.269 88.309 L 285.771 90.811 L 284.520 92.063 L 278.263 89.560 L 256.989 89.560 L 255.737 90.811 L 250.731 90.811 L 243.223 93.314 L 231.960 100.823 L 230.709 99.571 L 231.960 95.817 L 245.726 83.303 L 244.474 84.554 L 231.960 78.297 L 225.703 78.297 L 224.451 77.046 L 206.931 77.046 L 205.680 78.297 L 200.674 78.297 L 193.166 80.800 L 180.651 88.309 L 171.891 97.069 L 170.640 103.326 L 175.646 103.326 L 176.897 104.577 L 175.646 105.829 L 171.891 105.829 L 160.629 109.583 L 153.120 113.337 L 145.611 119.594 L 144.360 122.097 L 144.360 128.354 L 149.366 137.114 L 151.869 138.366 L 153.120 140.869 L 151.869 142.120 L 150.617 140.869 L 139.354 139.617 L 128.091 150.880 L 119.331 165.897 L 118.080 175.909 L 116.829 177.160 L 118.080 188.423 L 119.331 189.674 L 118.080 205.943 L 116.829 208.446 L 118.080 209.697 L 119.331 218.457 L 123.086 224.714 L 120.583 225.966 L 118.080 223.463 L 116.829 224.714 L 114.326 223.463 L 114.326 228.469 L 116.829 237.229 L 119.331 242.234 L 126.840 250.994 L 139.354 257.251 L 140.606 256.000 L 138.103 247.240 L 139.354 243.486 L 138.103 242.234 L 138.103 238.480 L 140.606 229.720 L 144.360 223.463 L 155.623 212.200 L 164.383 205.943 L 166.886 179.663 L 160.629 183.417 L 156.874 183.417 L 155.623 184.669 L 153.120 183.417 L 168.137 168.400 L 186.909 143.371 L 205.680 127.103 L 219.446 119.594 L 228.206 117.091 L 251.983 115.840 L 253.234 117.091 L 251.983 118.343 L 233.211 120.846 L 216.943 128.354 L 201.926 139.617 L 189.411 154.634 L 179.400 173.406 L 175.646 185.920 L 175.646 190.926 L 174.394 192.177 L 174.394 219.709 L 175.646 220.960 L 176.897 232.223 L 180.651 240.983 L 179.400 242.234 L 173.143 234.726 L 168.137 224.714 L 165.634 215.954 L 164.383 215.954 L 153.120 224.714 L 146.863 235.977 L 146.863 239.731 L 145.611 240.983 L 145.611 254.749 L 146.863 256.000 L 146.863 259.754 L 154.371 273.520 L 164.383 283.531 L 178.149 291.040 L 190.663 294.794 L 205.680 296.046 L 206.931 294.794 L 215.691 294.794 L 224.451 292.291 L 224.451 291.040 L 216.943 284.783 L 218.194 283.531 L 231.960 288.537 L 251.983 288.537 L 268.251 283.531 L 270.754 281.029 L 294.531 306.057 L 305.794 319.823 L 308.297 319.823 L 310.800 317.320 L 310.800 313.566 L 285.771 279.777 L 287.023 278.526 L 290.777 279.777 L 305.794 278.526 L 323.314 273.520 L 334.577 268.514 L 345.840 261.006 L 357.103 245.989 L 357.103 243.486 L 353.349 244.737 L 352.097 243.486 L 347.091 243.486 L 344.589 240.983 L 357.103 234.726 L 363.360 228.469 L 369.617 218.457 L 370.869 222.211 L 364.611 234.726 L 362.109 237.229 L 363.360 238.480 L 364.611 237.229 L 372.120 237.229 L 385.886 232.223 L 397.149 222.211 L 404.657 209.697 L 407.160 200.937 L 407.160 194.680 L 408.411 193.429 L 407.160 172.154 L 402.154 162.143 L 395.897 154.634 L 397.149 153.383 L 395.897 152.131 L 397.149 145.874 L 395.897 144.623 L 394.646 132.109 L 392.143 124.600 Z M 327.069 145.874 L 339.583 154.634 L 345.840 165.897 L 347.091 180.914 L 345.840 182.166 L 345.840 188.423 L 343.337 195.931 L 335.829 210.949 L 329.571 219.709 L 309.549 239.731 L 282.017 257.251 L 273.257 248.491 L 255.737 234.726 L 239.469 218.457 L 229.457 203.440 L 224.451 192.177 L 223.200 182.166 L 221.949 180.914 L 221.949 168.400 L 224.451 160.891 L 230.709 152.131 L 235.714 148.377 L 245.726 144.623 L 261.994 145.874 L 277.011 152.131 L 283.269 157.137 L 287.023 155.886 L 290.777 152.131 L 293.280 152.131 L 295.783 149.629 L 304.543 145.874 L 309.549 145.874 L 310.800 144.623 Z M 323.314 44.509 L 302.040 40.754 L 300.789 39.503 L 280.766 38.251 L 279.514 37.000 L 239.469 37.000 L 238.217 38.251 L 229.457 38.251 L 228.206 39.503 L 220.697 39.503 L 208.183 43.257 L 203.177 43.257 L 171.891 54.520 L 159.377 60.777 L 141.857 72.040 L 116.829 93.314 L 103.063 109.583 L 95.554 120.846 L 86.794 138.366 L 81.789 152.131 L 81.789 155.886 L 78.034 167.149 L 78.034 174.657 L 76.783 175.909 L 76.783 200.937 L 78.034 202.189 L 78.034 209.697 L 80.537 215.954 L 83.040 232.223 L 75.531 249.743 L 73.029 252.246 L 69.274 261.006 L 66.771 263.509 L 49.251 294.794 L 49.251 298.549 L 48.000 299.800 L 49.251 309.811 L 51.754 313.566 L 56.760 317.320 L 69.274 321.074 L 74.280 321.074 L 80.537 324.829 L 80.537 328.583 L 76.783 334.840 L 74.280 343.600 L 78.034 353.611 L 84.291 359.869 L 84.291 362.371 L 81.789 366.126 L 81.789 372.383 L 88.046 378.640 L 91.800 386.149 L 91.800 392.406 L 93.051 393.657 L 91.800 396.160 L 91.800 418.686 L 96.806 428.697 L 103.063 433.703 L 113.074 437.457 L 135.600 437.457 L 136.851 436.206 L 159.377 434.954 L 160.629 433.703 L 176.897 433.703 L 178.149 434.954 L 183.154 434.954 L 188.160 437.457 L 193.166 442.463 L 198.171 451.223 L 199.423 462.486 L 200.674 463.737 L 199.423 475.000 L 208.183 469.994 L 225.703 452.474 L 228.206 447.469 L 228.206 436.206 L 221.949 423.691 L 215.691 418.686 L 204.429 414.931 L 181.903 414.931 L 180.651 416.183 L 173.143 416.183 L 171.891 417.434 L 149.366 419.937 L 148.114 421.189 L 123.086 421.189 L 121.834 419.937 L 115.577 419.937 L 109.320 416.183 L 105.566 407.423 L 105.566 402.417 L 106.817 401.166 L 106.817 383.646 L 104.314 377.389 L 94.303 368.629 L 95.554 363.623 L 100.560 359.869 L 101.811 356.114 L 100.560 353.611 L 93.051 347.354 L 90.549 342.349 L 90.549 333.589 L 93.051 327.331 L 93.051 321.074 L 88.046 314.817 L 73.029 308.560 L 68.023 303.554 L 66.771 299.800 L 69.274 289.789 L 84.291 264.760 L 88.046 256.000 L 90.549 253.497 L 99.309 233.474 L 99.309 223.463 L 96.806 217.206 L 95.554 200.937 L 94.303 199.686 L 94.303 179.663 L 95.554 178.411 L 95.554 168.400 L 96.806 167.149 L 98.057 158.389 L 104.314 140.869 L 116.829 118.343 L 144.360 89.560 L 164.383 75.794 L 184.406 65.783 L 209.434 57.023 L 219.446 55.771 L 220.697 54.520 L 226.954 54.520 L 235.714 52.017 L 249.480 52.017 L 250.731 50.766 L 270.754 50.766 L 272.006 52.017 L 295.783 53.269 L 297.034 54.520 L 302.040 54.520 L 317.057 59.526 L 320.811 59.526 L 338.331 65.783 L 362.109 78.297 L 378.377 90.811 L 395.897 108.331 L 410.914 129.606 L 415.920 140.869 L 418.423 143.371 L 418.423 145.874 L 422.177 152.131 L 422.177 154.634 L 424.680 158.389 L 424.680 162.143 L 428.434 169.651 L 428.434 174.657 L 430.937 182.166 L 430.937 189.674 L 432.189 190.926 L 432.189 217.206 L 430.937 218.457 L 430.937 225.966 L 429.686 227.217 L 429.686 232.223 L 427.183 237.229 L 427.183 240.983 L 417.171 259.754 L 398.400 279.777 L 365.863 304.806 L 348.343 316.069 L 328.320 333.589 L 315.806 349.857 L 310.800 364.874 L 310.800 382.394 L 314.554 393.657 L 355.851 458.731 L 355.851 454.977 L 353.349 449.971 L 353.349 443.714 L 350.846 439.960 L 350.846 436.206 L 347.091 424.943 L 347.091 419.937 L 345.840 418.686 L 345.840 411.177 L 344.589 409.926 L 344.589 387.400 L 345.840 386.149 L 345.840 381.143 L 349.594 374.886 L 350.846 369.880 L 364.611 349.857 L 413.417 302.303 L 425.931 286.034 L 433.440 273.520 L 442.200 253.497 L 445.954 240.983 L 447.206 229.720 L 448.457 228.469 L 448.457 220.960 L 449.709 219.709 L 449.709 184.669 L 448.457 183.417 L 448.457 175.909 L 445.954 169.651 L 445.954 164.646 L 435.943 137.114 L 422.177 113.337 L 407.160 94.566 L 389.640 78.297 L 367.114 63.280 L 347.091 53.269 Z"
       id="path1" />
  </g>
  <g
     id="wordmark"
     fill="#A89B8F"
     font-family="Lato, Arial, sans-serif">
    <path
       d="m 633.77,137.01 -9.45,-27.93 q -1.05,-2.66 -2.24,-6.23 -1.19,-3.64 -2.38,-7.84 -1.05,4.27 -2.24,7.91 -1.19,3.64 -2.24,6.3 l -9.38,27.79 z M 671.36,176 h -18.34 q -3.08,0 -4.97,-1.4 -1.89,-1.47 -2.87,-3.71 l -6.02,-17.78 h -38.78 l -6.02,17.78 q -0.77,1.96 -2.8,3.57 -1.96,1.54 -4.9,1.54 H 568.18 L 607.66,74.01 h 24.22 z M 812.07006,74.01 V 176 h -20.86 v -58.66 q 0,-2.03 0.07,-4.41 0.14,-2.38 0.42,-4.83 l -27.09,52.43 q -1.26,2.45 -3.43,3.71 -2.1,1.26 -4.83,1.26 h -3.22 q -2.73,0 -4.9,-1.26 -2.1,-1.26 -3.36,-3.71 l -27.09,-52.57 q 0.21,2.52 0.35,4.97 0.14,2.38 0.14,4.41 V 176 h -20.86 V 74.01 h 18.06 q 1.54,0 2.66,0.07 1.19,0.07 2.1,0.42 0.91,0.35 1.61,1.12 0.77,0.7 1.47,2.03 l 26.25,51.73 q 1.4,2.66 2.66,5.53 1.33,2.87 2.52,5.88 1.19,-3.08 2.45,-6.02 1.33,-2.94 2.8,-5.6 l 26.18,-51.52 q 0.7,-1.33 1.4,-2.03 0.77,-0.77 1.68,-1.12 0.91,-0.35 2.03,-0.42 1.19,-0.07 2.73,-0.07 z m 91.64016,63 -9.45,-27.93 q -1.05,-2.66 -2.24,-6.23 -1.19,-3.64 -2.38,-7.84 -1.05,4.27 -2.24,7.91 -1.19,3.64 -2.24,6.3 l -9.38,27.79 z m 37.59,38.99 h -18.34 q -3.08,0 -4.97,-1.4 -1.89,-1.47 -2.87,-3.71 l -6.02,-17.78 h -38.78 l -6.02,17.78 q -0.77,1.96 -2.8,3.57 -1.96,1.54 -4.9,1.54 h -18.48 l 39.48,-101.99 h 24.22 z M 1056.3903,74.01 V 176 h -12.32 q -2.73,0 -4.62,-0.84 -1.82,-0.91 -3.64,-3.08 l -48.09001,-60.83 q 0.28,2.73 0.35,5.32 0.14,2.52 0.14,4.76 V 176 h -20.86 V 74.01 h 12.46 q 1.54,0 2.59,0.14 1.05,0.14 1.89,0.56 0.84,0.35 1.61,1.05 0.77,0.7 1.75,1.89 l 48.51001,61.25 q -0.35,-2.94 -0.49,-5.67 -0.14,-2.8 -0.14,-5.25 V 74.01 Z m 91.64,63 -9.45,-27.93 q -1.05,-2.66 -2.24,-6.23 -1.19,-3.64 -2.38,-7.84 -1.05,4.27 -2.24,7.91 -1.19,3.64 -2.24,6.3 l -9.38,27.79 z m 37.59,38.99 h -18.34 q -3.08,0 -4.97,-1.4 -1.89,-1.47 -2.87,-3.71 l -6.02,-17.78 h -38.78 l -6.02,17.78 q -0.77,1.96 -2.8,3.57 -1.96,1.54 -4.9,1.54 h -18.48 l 39.48,-101.99 h 24.22 z m 89.4002,-83.23 h -28.7 V 176 h -23.66 V 92.77 h -28.7 V 74.01 h 81.06 z"
       id="text1"
       style="font-weight:900;font-size:140px;letter-spacing:18"
       aria-label="AMANAT" />
    <path
       d="M 694.53,260.01 V 362 h -20.86 v -58.66 q 0,-2.03 0.07,-4.41 0.14,-2.38 0.42,-4.83 l -27.09,52.43 q -1.26,2.45 -3.43,3.71 -2.1,1.26 -4.83,1.26 h -3.22 q -2.73,0 -4.9,-1.26 -2.1,-1.26 -3.36,-3.71 l -27.09,-52.57 q 0.21,2.52 0.35,4.97 0.14,2.38 0.14,4.41 V 362 H 579.87 V 260.01 h 18.06 q 1.54,0 2.66,0.07 1.19,0.07 2.1,0.42 0.91,0.35 1.61,1.12 0.77,0.7 1.47,2.03 l 26.25,51.73 q 1.4,2.66 2.66,5.53 1.33,2.87 2.52,5.88 1.19,-3.08 2.45,-6.02 1.33,-2.94 2.8,-5.6 l 26.18,-51.52 q 0.7,-1.33 1.4,-2.03 0.77,-0.77 1.68,-1.12 0.91,-0.35 2.03,-0.42 1.19,-0.07 2.73,-0.07 z m 56.54015,18.2 v 23.8 h 32.06 v 17.5 h -32.06 v 24.29 h 41.86 V 362 h -65.66 V 260.01 h 65.66 v 18.2 z m 158.46,-18.2 V 362 h -12.32 q -2.73,0 -4.62,-0.84 -1.82,-0.91 -3.64,-3.08 l -48.09,-60.83 q 0.28,2.73 0.35,5.32 0.14,2.52 0.14,4.76 V 362 h -20.86 V 260.01 h 12.46 q 1.54,0 2.59,0.14 1.05,0.14 1.89,0.56 0.84,0.35 1.61,1.05 0.77,0.7 1.75,1.89 l 48.51,61.25 q -0.35,-2.94 -0.49,-5.67 -0.14,-2.8 -0.14,-5.25 v -53.97 z m 106.03005,18.76 H 986.86021 V 362 h -23.66 v -83.23 h -28.7 v -18.76 h 81.05999 z m 68.93,44.24 -9.45,-27.93 q -1.05,-2.66 -2.24,-6.23 -1.19,-3.64 -2.38,-7.84 -1.05,4.27 -2.24,7.91 -1.19,3.64 -2.24,6.3 l -9.38,27.79 z m 37.59,38.99 h -18.34 q -3.08,0 -4.97,-1.4 -1.89,-1.47 -2.87,-3.71 l -6.02,-17.78 h -38.78 l -6.02,17.78 q -0.77,1.96 -2.8,3.57 -1.96,1.54 -4.9,1.54 h -18.48 l 39.48,-101.99 h 24.22 z m 82.5101,-18.9 V 362 h -61.46 V 260.01 h 23.66 v 83.09 z m 134.92,-7.49 q 0.84,0 1.68,0.35 0.84,0.28 1.61,1.05 l 9.38,9.87 q -6.16,8.05 -15.47,12.18 -9.24,4.06 -21.91,4.06 -11.62,0 -20.86,-3.92 -9.17,-3.99 -15.61,-10.92 -6.37,-7 -9.8,-16.52 -3.43,-9.59 -3.43,-20.79 0,-11.41 3.71,-20.93 3.71,-9.59 10.43,-16.52 6.72,-6.93 16.1,-10.78 9.38,-3.85 20.65,-3.85 5.74,0 10.78,1.05 5.11,0.98 9.52,2.8 4.41,1.75 8.12,4.27 3.71,2.52 6.58,5.46 l -7.98,10.71 q -0.77,0.98 -1.82,1.82 -1.05,0.77 -2.94,0.77 -1.26,0 -2.38,-0.56 -1.12,-0.56 -2.38,-1.33 -1.26,-0.84 -2.8,-1.75 -1.47,-0.98 -3.57,-1.75 -2.03,-0.84 -4.83,-1.4 -2.73,-0.56 -6.44,-0.56 -5.88,0 -10.78,2.17 -4.83,2.17 -8.4,6.37 -3.5,4.13 -5.46,10.22 -1.89,6.02 -1.89,13.79 0,7.84 2.1,13.93 2.17,6.09 5.81,10.29 3.71,4.13 8.61,6.3 4.9,2.17 10.5,2.17 3.22,0 5.88,-0.28 2.66,-0.35 4.97,-1.05 2.31,-0.77 4.34,-1.96 2.03,-1.26 4.13,-3.15 0.84,-0.7 1.82,-1.12 0.98,-0.49 2.03,-0.49 z m 97.49,7.49 V 362 h -61.46 V 260.01 h 23.66 v 83.09 z m 48.84,18.9 h -23.8 V 260.01 h 23.8 z M 1607.6204,260.01 V 362 h -12.32 q -2.73,0 -4.62,-0.84 -1.82,-0.91 -3.64,-3.08 l -48.09,-60.83 q 0.28,2.73 0.35,5.32 0.14,2.52 0.14,4.76 V 362 h -20.86 V 260.01 h 12.46 q 1.54,0 2.59,0.14 1.05,0.14 1.89,0.56 0.84,0.35 1.61,1.05 0.77,0.7 1.75,1.89 l 48.51,61.25 q -0.35,-2.94 -0.49,-5.67 -0.14,-2.8 -0.14,-5.25 V 260.01 Z M 1664.1605,362 h -23.8 V 260.01 h 23.8 z m 101.48,-26.39 q 0.84,0 1.68,0.35 0.84,0.28 1.61,1.05 l 9.38,9.87 q -6.16,8.05 -15.47,12.18 -9.24,4.06 -21.91,4.06 -11.62,0 -20.86,-3.92 -9.17,-3.99 -15.61,-10.92 -6.37,-7 -9.8,-16.52 -3.43,-9.59 -3.43,-20.79 0,-11.41 3.71,-20.93 3.71,-9.59 10.43,-16.52 6.72,-6.93 16.1,-10.78 9.38,-3.85 20.65,-3.85 5.74,0 10.78,1.05 5.11,0.98 9.52,2.8 4.41,1.75 8.12,4.27 3.71,2.52 6.58,5.46 l -7.98,10.71 q -0.77,0.98 -1.82,1.82 -1.05,0.77 -2.94,0.77 -1.26,0 -2.38,-0.56 -1.12,-0.56 -2.38,-1.33 -1.26,-0.84 -2.8,-1.75 -1.47,-0.98 -3.57,-1.75 -2.03,-0.84 -4.83,-1.4 -2.73,-0.56 -6.44,-0.56 -5.88,0 -10.78,2.17 -4.83,2.17 -8.4,6.37 -3.5,4.13 -5.46,10.22 -1.89,6.02 -1.89,13.79 0,7.84 2.1,13.93 2.17,6.09 5.81,10.29 3.71,4.13 8.61,6.3 4.9,2.17 10.5,2.17 3.22,0 5.88,-0.28 2.66,-0.35 4.97,-1.05 2.31,-0.77 4.34,-1.96 2.03,-1.26 4.13,-3.15 0.84,-0.7 1.82,-1.12 0.98,-0.49 2.03,-0.49 z"
       id="text2"
       style="font-weight:900;font-size:140px;letter-spacing:13"
       aria-label="MENTAL CLINIC" />
    <path
       d="m 592.775,461.2 v 10.025 h 12.65 v 5.175 h -12.65 v 10.225 h 16.05 V 492 h -22.8 v -36.15 h 22.8 v 5.35 z m 25.47505,30.8 v -25.65 h 3.775 q 1.2,0 1.575,1.125 l 0.4,1.9 q 0.675,-0.75 1.4,-1.375 0.75,-0.625 1.575,-1.075 0.85,-0.45 1.8,-0.7 0.975,-0.275 2.125,-0.275 2.425,0 3.975,1.325 1.575,1.3 2.35,3.475 0.6,-1.275 1.5,-2.175 0.9,-0.925 1.975,-1.5 1.075,-0.575 2.275,-0.85 1.225,-0.275 2.45,-0.275 2.125,0 3.775,0.65 1.65,0.65 2.775,1.9 1.125,1.25 1.7,3.05 0.6,1.8 0.6,4.125 V 492 h -6.175 v -16.325 q 0,-2.45 -1.075,-3.675 -1.075,-1.25 -3.15,-1.25 -0.95,0 -1.775,0.325 -0.8,0.325 -1.425,0.95 -0.6,0.6 -0.95,1.525 -0.35,0.925 -0.35,2.125 V 492 h -6.2 v -16.325 q 0,-2.575 -1.05,-3.75 -1.025,-1.175 -3.025,-1.175 -1.35,0 -2.525,0.675 -1.15,0.65 -2.15,1.8 V 492 Z m 53.04999,-6.65 q 1.05,1.275 2.275,1.8 1.25,0.525 2.7,0.525 1.4,0 2.525,-0.525 1.125,-0.525 1.9,-1.6 0.8,-1.075 1.225,-2.7 0.425,-1.65 0.425,-3.875 0,-2.25 -0.375,-3.8 -0.35,-1.575 -1.025,-2.55 -0.675,-0.975 -1.65,-1.425 -0.95,-0.45 -2.175,-0.45 -1.925,0 -3.275,0.825 -1.35,0.8 -2.55,2.275 z m -0.325,-15.5 q 1.575,-1.775 3.575,-2.875 2,-1.1 4.7,-1.1 2.1,0 3.825,0.875 1.75,0.875 3,2.55 1.275,1.65 1.95,4.1 0.7,2.425 0.7,5.575 0,2.875 -0.775,5.325 -0.775,2.45 -2.225,4.25 -1.425,1.8 -3.475,2.825 -2.025,1 -4.55,1 -2.15,0 -3.675,-0.65 -1.525,-0.675 -2.725,-1.85 v 10.5 h -6.175 V 466.35 h 3.775 q 1.2,0 1.575,1.125 z m 41.10003,11.2 q -2.675,0.125 -4.5,0.475 -1.825,0.325 -2.925,0.85 -1.1,0.525 -1.575,1.225 -0.475,0.7 -0.475,1.525 0,1.625 0.95,2.325 0.975,0.7 2.525,0.7 1.9,0 3.275,-0.675 1.4,-0.7 2.725,-2.1 z m -14.15,-11.125 q 4.425,-4.05 10.65,-4.05 2.25,0 4.025,0.75 1.775,0.725 3,2.05 1.225,1.3 1.85,3.125 0.65,1.825 0.65,4 V 492 h -2.8 q -0.875,0 -1.35,-0.25 -0.475,-0.275 -0.75,-1.075 l -0.55,-1.85 q -0.975,0.875 -1.9,1.55 -0.925,0.65 -1.925,1.1 -1,0.45 -2.15,0.675 -1.125,0.25 -2.5,0.25 -1.625,0 -3,-0.425 -1.375,-0.45 -2.375,-1.325 -1,-0.875 -1.55,-2.175 -0.55,-1.3 -0.55,-3.025 0,-0.975 0.325,-1.925 0.325,-0.975 1.05,-1.85 0.75,-0.875 1.925,-1.65 1.175,-0.775 2.875,-1.35 1.725,-0.575 4,-0.925 2.275,-0.375 5.2,-0.45 v -1.5 q 0,-2.575 -1.1,-3.8 -1.1,-1.25 -3.175,-1.25 -1.5,0 -2.5,0.35 -0.975,0.35 -1.725,0.8 -0.75,0.425 -1.375,0.775 -0.6,0.35 -1.35,0.35 -0.65,0 -1.1,-0.325 -0.45,-0.35 -0.725,-0.8 z m 39.17499,22.475 q -3.35,0 -5.15,-1.875 -1.775,-1.9 -1.775,-5.225 v -14.325 h -2.625 q -0.5,0 -0.85,-0.325 -0.35,-0.325 -0.35,-0.975 v -2.45 l 4.125,-0.675 1.3,-7 q 0.125,-0.5 0.475,-0.775 0.35,-0.275 0.9,-0.275 h 3.2 v 8.075 h 6.85 v 4.4 h -6.85 v 13.9 q 0,1.2 0.575,1.875 0.6,0.675 1.625,0.675 0.575,0 0.95,-0.125 0.4,-0.15 0.675,-0.3 0.3,-0.15 0.525,-0.275 0.225,-0.15 0.45,-0.15 0.275,0 0.45,0.15 0.175,0.125 0.375,0.4 l 1.85,3 q -1.35,1.125 -3.1,1.7 -1.75,0.575 -3.625,0.575 z m 21.22499,-23.3 q 1.5,-1.4 3.3,-2.275 1.8,-0.875 4.225,-0.875 2.1,0 3.725,0.725 1.625,0.7 2.7,2 1.1,1.275 1.65,3.075 0.575,1.775 0.575,3.925 V 492 h -6.175 v -16.325 q 0,-2.35 -1.075,-3.625 -1.075,-1.3 -3.275,-1.3 -1.6,0 -3,0.725 -1.4,0.725 -2.65,1.975 V 492 h -6.175 v -37.15 h 6.175 z m 49.62496,-2.75 -13.975,32.7 q -0.275,0.65 -0.725,0.975 -0.425,0.35 -1.325,0.35 h -4.6 l 4.8,-10.3 -10.375,-23.725 h 5.425 q 0.725,0 1.125,0.35 0.425,0.35 0.625,0.8 l 5.45,13.3 q 0.275,0.675 0.45,1.35 0.2,0.675 0.375,1.375 0.225,-0.7 0.45,-1.375 0.225,-0.7 0.5,-1.375 l 5.15,-13.275 q 0.2,-0.5 0.65,-0.825 0.475,-0.325 1.05,-0.325 z m 24.52502,10.825 q 0,-2.25 0.85,-4.225 0.875,-1.975 2.35,-3.45 1.475,-1.5 3.45,-2.35 1.975,-0.85 4.225,-0.85 2.25,0 4.25,0.85 2,0.85 3.475,2.35 1.475,1.475 2.325,3.45 0.875,1.975 0.875,4.225 0,2.225 -0.875,4.2 -0.85,1.95 -2.325,3.425 -1.475,1.475 -3.475,2.325 -2,0.85 -4.25,0.85 -2.25,0 -4.225,-0.85 -1.975,-0.85 -3.45,-2.325 -1.475,-1.475 -2.35,-3.425 -0.85,-1.975 -0.85,-4.2 z M 890.80002,461.2 v 10.025 h 12.65 v 5.175 h -12.65 v 10.225 h 16.05 V 492 h -22.8 v -36.15 h 22.8 v 5.35 z m 48.92507,30.8 h -5.95 q -0.675,0 -1.1,-0.35 -0.4,-0.35 -0.675,-0.8 l -5.425,-8.925 q -0.125,0.425 -0.3,0.8 -0.15,0.375 -0.35,0.7 l -4.8,7.425 q -0.275,0.425 -0.675,0.8 -0.4,0.35 -1,0.35 h -5.525 l 8.8,-13.225 -8.45,-12.425 h 5.95 q 0.675,0 1,0.2 0.325,0.175 0.575,0.6 l 5.375,8.55 q 0.275,-0.85 0.775,-1.675 l 4.325,-6.75 q 0.55,-0.925 1.425,-0.925 h 5.675 l -8.425,12.15 z m 25.42492,-20.225 q -0.275,0.35 -0.55,0.55 -0.25,0.2 -0.75,0.2 -0.475,0 -0.925,-0.275 -0.45,-0.3 -1.075,-0.65 -0.625,-0.375 -1.5,-0.65 -0.85,-0.3 -2.125,-0.3 -1.625,0 -2.85,0.6 -1.225,0.575 -2.05,1.675 -0.8,1.1 -1.2,2.675 -0.4,1.55 -0.4,3.525 0,2.05 0.425,3.65 0.45,1.6 1.275,2.7 0.825,1.075 2,1.65 1.175,0.55 2.65,0.55 1.475,0 2.375,-0.35 0.925,-0.375 1.55,-0.8 0.625,-0.45 1.075,-0.8 0.475,-0.375 1.05,-0.375 0.75,0 1.125,0.575 l 1.775,2.25 q -1.025,1.2 -2.225,2.025 -1.2,0.8 -2.5,1.3 -1.275,0.475 -2.65,0.675 -1.35,0.2 -2.7,0.2 -2.375,0 -4.475,-0.875 -2.1,-0.9 -3.675,-2.6 -1.575,-1.7 -2.5,-4.15 -0.9,-2.475 -0.9,-5.625 0,-2.825 0.8,-5.225 0.825,-2.425 2.4,-4.175 1.575,-1.775 3.9,-2.775 2.325,-1 5.35,-1 2.875,0 5.025,0.925 2.175,0.925 3.9,2.65 z m 26.79999,4.45 q 0,-1.2 -0.35,-2.25 -0.325,-1.075 -1,-1.875 -0.675,-0.8 -1.725,-1.25 -1.025,-0.475 -2.4,-0.475 -2.675,0 -4.225,1.525 -1.525,1.525 -1.95,4.325 z m -11.775,3.725 q 0.15,1.975 0.7,3.425 0.55,1.425 1.45,2.375 0.9,0.925 2.125,1.4 1.25,0.45 2.75,0.45 1.5,0 2.575,-0.35 1.1,-0.35 1.9,-0.775 0.825,-0.425 1.425,-0.775 0.625,-0.35 1.2,-0.35 0.775,0 1.15,0.575 l 1.775,2.25 q -1.025,1.2 -2.3,2.025 -1.275,0.8 -2.675,1.3 -1.375,0.475 -2.825,0.675 -1.425,0.2 -2.775,0.2 -2.675,0 -4.975,-0.875 -2.3,-0.9 -4,-2.625 -1.7,-1.75 -2.675,-4.3 -0.975,-2.575 -0.975,-5.95 0,-2.625 0.85,-4.925 0.85,-2.325 2.425,-4.025 1.6,-1.725 3.875,-2.725 2.3,-1 5.175,-1 2.425,0 4.475,0.775 2.05,0.775 3.525,2.275 1.475,1.475 2.3,3.65 0.85,2.15 0.85,4.925 0,1.4 -0.3,1.9 -0.3,0.475 -1.15,0.475 z m 33.2,-25.1 V 492 h -6.175 v -37.15 z m 17.4251,0 V 492 h -6.175 v -37.15 z m 27.7,21.375 q 0,-1.2 -0.35,-2.25 -0.325,-1.075 -1,-1.875 -0.675,-0.8 -1.725,-1.25 -1.025,-0.475 -2.4,-0.475 -2.675,0 -4.225,1.525 -1.525,1.525 -1.95,4.325 z m -11.775,3.725 q 0.15,1.975 0.7,3.425 0.55,1.425 1.45,2.375 0.9,0.925 2.125,1.4 1.25,0.45 2.75,0.45 1.5,0 2.575,-0.35 1.1,-0.35 1.9,-0.775 0.825,-0.425 1.425,-0.775 0.625,-0.35 1.2,-0.35 0.775,0 1.15,0.575 l 1.775,2.25 q -1.025,1.2 -2.3,2.025 -1.275,0.8 -2.675,1.3 -1.375,0.475 -2.825,0.675 -1.425,0.2 -2.775,0.2 -2.675,0 -4.975,-0.875 -2.3,-0.9 -4,-2.625 -1.7,-1.75 -2.675,-4.3 -0.975,-2.575 -0.975,-5.95 0,-2.625 0.85,-4.925 0.85,-2.325 2.425,-4.025 1.6,-1.725 3.875,-2.725 2.3,-1 5.175,-1 2.425,0 4.475,0.775 2.05,0.775 3.525,2.275 1.475,1.475 2.3,3.65 0.85,2.15 0.85,4.925 0,1.4 -0.3,1.9 -0.3,0.475 -1.15,0.475 z m 32.725,-10.45 q 0.775,-0.775 1.625,-1.425 0.875,-0.675 1.825,-1.125 0.975,-0.475 2.075,-0.725 1.1,-0.275 2.4,-0.275 2.1,0 3.725,0.725 1.625,0.7 2.7,2 1.1,1.275 1.65,3.075 0.575,1.775 0.575,3.925 V 492 h -6.175 v -16.325 q 0,-2.35 -1.075,-3.625 -1.075,-1.3 -3.275,-1.3 -1.6,0 -3,0.725 -1.4,0.725 -2.65,1.975 V 492 h -6.175 v -25.65 h 3.775 q 1.2,0 1.575,1.125 z m 45.8,2.275 q -0.275,0.35 -0.55,0.55 -0.25,0.2 -0.75,0.2 -0.475,0 -0.925,-0.275 -0.45,-0.3 -1.075,-0.65 -0.625,-0.375 -1.5,-0.65 -0.85,-0.3 -2.125,-0.3 -1.625,0 -2.85,0.6 -1.225,0.575 -2.05,1.675 -0.8,1.1 -1.2,2.675 -0.4,1.55 -0.4,3.525 0,2.05 0.425,3.65 0.45,1.6 1.275,2.7 0.825,1.075 2,1.65 1.175,0.55 2.65,0.55 1.475,0 2.375,-0.35 0.925,-0.375 1.55,-0.8 0.625,-0.45 1.075,-0.8 0.475,-0.375 1.05,-0.375 0.75,0 1.125,0.575 l 1.775,2.25 q -1.025,1.2 -2.225,2.025 -1.2,0.8 -2.5,1.3 -1.275,0.475 -2.65,0.675 -1.35,0.2 -2.7,0.2 -2.375,0 -4.475,-0.875 -2.1,-0.9 -3.675,-2.6 -1.575,-1.7 -2.5,-4.15 -0.9,-2.475 -0.9,-5.625 0,-2.825 0.8,-5.225 0.825,-2.425 2.4,-4.175 1.575,-1.775 3.9,-2.775 2.325,-1 5.35,-1 2.875,0 5.025,0.925 2.175,0.925 3.9,2.65 z m 26.7999,4.45 q 0,-1.2 -0.35,-2.25 -0.325,-1.075 -1,-1.875 -0.675,-0.8 -1.725,-1.25 -1.025,-0.475 -2.4,-0.475 -2.675,0 -4.225,1.525 -1.525,1.525 -1.95,4.325 z m -11.775,3.725 q 0.15,1.975 0.7,3.425 0.55,1.425 1.45,2.375 0.9,0.925 2.125,1.4 1.25,0.45 2.75,0.45 1.5,0 2.575,-0.35 1.1,-0.35 1.9,-0.775 0.825,-0.425 1.425,-0.775 0.625,-0.35 1.2,-0.35 0.775,0 1.15,0.575 l 1.775,2.25 q -1.025,1.2 -2.3,2.025 -1.275,0.8 -2.675,1.3 -1.375,0.475 -2.825,0.675 -1.425,0.2 -2.775,0.2 -2.675,0 -4.975,-0.875 -2.3,-0.9 -4,-2.625 -1.7,-1.75 -2.675,-4.3 -0.975,-2.575 -0.975,-5.95 0,-2.625 0.85,-4.925 0.85,-2.325 2.425,-4.025 1.6,-1.725 3.875,-2.725 2.3,-1 5.175,-1 2.425,0 4.475,0.775 2.05,0.775 3.525,2.275 1.475,1.475 2.3,3.65 0.85,2.15 0.85,4.925 0,1.4 -0.3,1.9 -0.3,0.475 -1.15,0.475 z m 44.6501,-2.775 q 0,-2.25 0.85,-4.225 0.875,-1.975 2.35,-3.45 1.475,-1.5 3.45,-2.35 1.975,-0.85 4.225,-0.85 2.25,0 4.25,0.85 2,0.85 3.475,2.35 1.475,1.475 2.325,3.45 0.875,1.975 0.875,4.225 0,2.225 -0.875,4.2 -0.85,1.95 -2.325,3.425 -1.475,1.475 -3.475,2.325 -2,0.85 -4.25,0.85 -2.25,0 -4.225,-0.85 -1.975,-0.85 -3.45,-2.325 -1.475,-1.475 -2.35,-3.425 -0.85,-1.975 -0.85,-4.2 z m 62.4999,-4.125 q 1.9,0 3.3,-0.475 1.425,-0.475 2.325,-1.3 0.925,-0.85 1.375,-2 0.45,-1.15 0.45,-2.525 0,-2.75 -1.825,-4.225 -1.8,-1.475 -5.525,-1.475 h -4.3 v 12 z m 17.3,18.95 h -6.075 q -1.725,0 -2.5,-1.35 l -7.6,-11.575 q -0.425,-0.65 -0.95,-0.925 -0.5,-0.275 -1.5,-0.275 h -2.875 V 492 h -6.725 v -36.15 h 11.025 q 3.675,0 6.3,0.775 2.65,0.75 4.325,2.125 1.7,1.375 2.5,3.3 0.8,1.9 0.8,4.2 0,1.825 -0.55,3.45 -0.525,1.625 -1.55,2.95 -1,1.325 -2.5,2.325 -1.475,1 -3.375,1.575 0.65,0.375 1.2,0.9 0.55,0.5 1,1.2 z m 22.8,-15.775 q 0,-1.2 -0.35,-2.25 -0.325,-1.075 -1,-1.875 -0.675,-0.8 -1.725,-1.25 -1.025,-0.475 -2.4,-0.475 -2.675,0 -4.225,1.525 -1.525,1.525 -1.95,4.325 z m -11.775,3.725 q 0.15,1.975 0.7,3.425 0.55,1.425 1.45,2.375 0.9,0.925 2.125,1.4 1.25,0.45 2.75,0.45 1.5,0 2.575,-0.35 1.1,-0.35 1.9,-0.775 0.825,-0.425 1.425,-0.775 0.625,-0.35 1.2,-0.35 0.775,0 1.15,0.575 l 1.775,2.25 q -1.025,1.2 -2.3,2.025 -1.275,0.8 -2.675,1.3 -1.375,0.475 -2.825,0.675 -1.425,0.2 -2.775,0.2 -2.675,0 -4.975,-0.875 -2.3,-0.9 -4,-2.625 -1.7,-1.75 -2.675,-4.3 -0.975,-2.575 -0.975,-5.95 0,-2.625 0.85,-4.925 0.85,-2.325 2.425,-4.025 1.6,-1.725 3.875,-2.725 2.3,-1 5.175,-1 2.425,0 4.475,0.775 2.05,0.775 3.525,2.275 1.475,1.475 2.3,3.65 0.85,2.15 0.85,4.925 0,1.4 -0.3,1.9 -0.3,0.475 -1.15,0.475 z m 45.325,-8.175 q -0.275,0.35 -0.55,0.55 -0.25,0.2 -0.75,0.2 -0.475,0 -0.925,-0.275 -0.45,-0.3 -1.075,-0.65 -0.625,-0.375 -1.5,-0.65 -0.85,-0.3 -2.125,-0.3 -1.625,0 -2.85,0.6 -1.225,0.575 -2.05,1.675 -0.8,1.1 -1.2,2.675 -0.4,1.55 -0.4,3.525 0,2.05 0.425,3.65 0.45,1.6 1.275,2.7 0.825,1.075 2,1.65 1.175,0.55 2.65,0.55 1.475,0 2.375,-0.35 0.925,-0.375 1.55,-0.8 0.625,-0.45 1.075,-0.8 0.475,-0.375 1.05,-0.375 0.75,0 1.125,0.575 l 1.775,2.25 q -1.025,1.2 -2.225,2.025 -1.2,0.8 -2.5,1.3 -1.275,0.475 -2.65,0.675 -1.35,0.2 -2.7,0.2 -2.375,0 -4.475,-0.875 -2.1,-0.9 -3.675,-2.6 -1.575,-1.7 -2.5,-4.15 -0.9,-2.475 -0.9,-5.625 0,-2.825 0.8,-5.225 0.825,-2.425 2.4,-4.175 1.575,-1.775 3.9,-2.775 2.325,-1 5.35,-1 2.875,0 5.025,0.925 2.175,0.925 3.9,2.65 z m 21.625,-5.825 q 2.85,0 5.175,0.925 2.35,0.925 4,2.625 1.675,1.7 2.575,4.15 0.9,2.45 0.9,5.475 0,3.05 -0.9,5.5 -0.9,2.45 -2.575,4.175 -1.65,1.725 -4,2.65 -2.325,0.925 -5.175,0.925 -2.875,0 -5.225,-0.925 -2.35,-0.925 -4.025,-2.65 -1.65,-1.725 -2.575,-4.175 -0.9,-2.45 -0.9,-5.5 0,-3.025 0.9,-5.475 0.925,-2.45 2.575,-4.15 1.675,-1.7 4.025,-2.625 2.35,-0.925 5.225,-0.925 z m 0,21.675 q 3.2,0 4.725,-2.15 1.55,-2.15 1.55,-6.3 0,-4.15 -1.55,-6.325 -1.525,-2.175 -4.725,-2.175 -3.25,0 -4.825,2.2 -1.55,2.175 -1.55,6.3 0,4.125 1.55,6.3 1.575,2.15 4.825,2.15 z m 44.6999,-21.275 -10.175,25.65 h -5.6 l -10.175,-25.65 h 5.1 q 0.7,0 1.15,0.325 0.475,0.325 0.625,0.825 l 4.95,13.7 q 0.4,1.2 0.7,2.35 0.3,1.15 0.525,2.3 0.25,-1.15 0.55,-2.3 0.3,-1.15 0.725,-2.35 l 5.05,-13.7 q 0.175,-0.5 0.625,-0.825 0.45,-0.325 1.075,-0.325 z m 24,9.875 q 0,-1.2 -0.35,-2.25 -0.325,-1.075 -1,-1.875 -0.675,-0.8 -1.725,-1.25 -1.025,-0.475 -2.4,-0.475 -2.675,0 -4.225,1.525 -1.525,1.525 -1.95,4.325 z m -11.775,3.725 q 0.15,1.975 0.7,3.425 0.55,1.425 1.45,2.375 0.9,0.925 2.125,1.4 1.25,0.45 2.75,0.45 1.5,0 2.575,-0.35 1.1,-0.35 1.9,-0.775 0.825,-0.425 1.425,-0.775 0.625,-0.35 1.2,-0.35 0.775,0 1.15,0.575 l 1.775,2.25 q -1.025,1.2 -2.3,2.025 -1.275,0.8 -2.675,1.3 -1.375,0.475 -2.825,0.675 -1.425,0.2 -2.775,0.2 -2.675,0 -4.975,-0.875 -2.3,-0.9 -4,-2.625 -1.7,-1.75 -2.675,-4.3 -0.975,-2.575 -0.975,-5.95 0,-2.625 0.85,-4.925 0.85,-2.325 2.425,-4.025 1.6,-1.725 3.875,-2.725 2.3,-1 5.175,-1 2.425,0 4.475,0.775 2.05,0.775 3.525,2.275 1.475,1.475 2.3,3.65 0.85,2.15 0.85,4.925 0,1.4 -0.3,1.9 -0.3,0.475 -1.15,0.475 z m 32.775,-9.15 q 1.2,-2.3 2.85,-3.6 1.65,-1.325 3.9,-1.325 1.775,0 2.85,0.775 l -0.4,4.625 q -0.125,0.45 -0.375,0.65 -0.225,0.175 -0.625,0.175 -0.375,0 -1.125,-0.125 -0.725,-0.125 -1.425,-0.125 -1.025,0 -1.825,0.3 -0.8,0.3 -1.45,0.875 -0.625,0.55 -1.125,1.35 -0.475,0.8 -0.9,1.825 V 492 h -6.175 v -25.65 h 3.625 q 0.95,0 1.325,0.35 0.375,0.325 0.5,1.2 z m 41.125,-4.45 -13.975,32.7 q -0.275,0.65 -0.725,0.975 -0.425,0.35 -1.325,0.35 h -4.6 l 4.8,-10.3 -10.375,-23.725 h 5.425 q 0.725,0 1.125,0.35 0.425,0.35 0.625,0.8 l 5.45,13.3 q 0.275,0.675 0.45,1.35 0.2,0.675 0.375,1.375 0.225,-0.7 0.45,-1.375 0.225,-0.7 0.5,-1.375 l 5.15,-13.275 q 0.2,-0.5 0.65,-0.825 0.475,-0.325 1.05,-0.325 z"
       id="text3"
       style="font-weight:700;font-size:50px;letter-spacing:5"
       aria-label="Empathy • Excellence • Recovery" />
  </g>
</svg>
